<?xml version="1.0" encoding="UTF-8"?>
<svg id="Layer_2" data-name="Layer 2" xmlns="http://www.w3.org/2000/svg" viewBox="0 0 350.14 132.31">
  <defs>
    <style>
      .cls-1 {
        fill: #fff;
      }

      .cls-2 {
        fill: #ed3819;
      }

      .cls-3 {
        fill: #0a1117;
      }
    </style>
  </defs>
  <g id="Logo">
    <rect class="cls-1" x="0" y="0" width="350.14" height="132.31" rx="66.16" ry="66.16"/>
    <g>
      <path class="cls-2" d="M168.47,41.5c-.15-.15-.24-.31-.27-.5-.03-.19-.05-.35-.06-.49-.02-.14-.04-.28-.08-.44s-.06-.3-.09-.44c-.03-.14-.06-.29-.09-.46-.07-.33-.26-.49-.57-.49-.17,0-.32,.04-.44,.13s-.25,.17-.39,.26c-.14,.09-.28,.18-.44,.28-.16,.1-.3,.21-.44,.31s-.27,.2-.4,.3-.27,.14-.43,.14-.28-.08-.39-.23c-.34-.57-.61-.98-.8-1.25-.19-.27-.34-.48-.46-.64-.12-.16-.21-.29-.28-.39-.07-.09-.15-.2-.25-.32s-.23-.18-.4-.18-.33,.08-.49,.23c-1.2,1.41-2.67,2.67-4.41,3.79-.12,.07-.25,.1-.4,.1s-.29-.09-.43-.28c-.31-.48-.63-.89-.95-1.21l-.59-.59c-.07-.07-.15-.14-.23-.21-.31-.27-.28-.51,.08-.7,1.36-.7,2.59-1.62,3.71-2.73,.34-.34,.46-.64,.35-.88-.11-.24-.42-.36-.92-.36h-2.09c-.26,0-.46-.08-.62-.23-.15-.15-.23-.36-.23-.62v-1.39c0-.26,.08-.46,.23-.62,.16-.15,.36-.23,.62-.23h5.18c.21,0,.35-.09,.44-.28l.21-.59c.05-.19-.02-.28-.21-.28h-6.21c-.26,0-.46-.08-.62-.23-.15-.15-.23-.36-.23-.62v-1.31c0-.26,.08-.46,.23-.62,.16-.15,.36-.23,.62-.23h7.09c.14,0,.22-.07,.26-.21l.08-.41c.03-.14-.03-.21-.18-.21h-4.67c-.26,0-.46-.08-.62-.23-.15-.15-.23-.36-.23-.62v-1.03c0-.26,.08-.46,.23-.62,.16-.15,.36-.23,.62-.23h4.74c.29,0,.46-.15,.49-.44,0-.27-.14-.41-.41-.41h-6.52c-.26,0-.46-.08-.62-.23-.16-.15-.23-.36-.23-.62v-1.19c0-.26,.08-.46,.23-.62,.15-.15,.36-.23,.62-.23h6.6c.29,0,.46-.15,.49-.46v-.95c0-.33,.16-.49,.49-.49h2.47c.26,0,.46,.08,.62,.23,.15,.15,.23,.36,.23,.62v.21c0,.26,.08,.46,.23,.62s.36,.23,.62,.23h8.27c.26,0,.46,.08,.62,.23,.16,.15,.23,.36,.23,.62v1.19c0,.26-.08,.46-.23,.62-.15,.15-.36,.23-.62,.23h-9.07c-.14,0-.21,.07-.21,.21v.21l-.03,.23c-.04,.14,.03,.21,.18,.21h7.37c.26,0,.46,.08,.62,.23,.15,.15,.23,.36,.23,.62v1.03c0,.26-.08,.46-.23,.62-.16,.15-.36,.23-.62,.23h-7.71c-.12,0-.2,.07-.23,.21l-.08,.41c0,.14,.06,.21,.18,.21h10.26c.26,0,.46,.08,.62,.23,.16,.15,.23,.36,.23,.62v1.31c0,.26-.08,.46-.23,.62-.15,.15-.36,.23-.62,.23h-2.5c-.4,0-.59,.19-.59,.58s.2,.58,.59,.58h1.91c.26,0,.46,.08,.62,.23,.16,.15,.23,.36,.23,.62v1.39c0,.26-.08,.46-.23,.62-.15,.15-.36,.23-.62,.23h-1.65c-.26,0-.46,.08-.62,.23-.16,.15-.23,.36-.23,.62v3.56c0,1.65-.74,2.63-2.22,2.94-.45,.09-.94,.13-1.49,.13h-.95c-.24,0-.44-.07-.59-.22Zm-.1-3.65h.62c.34,0,.6-.05,.76-.14,.16-.09,.24-.33,.24-.71v-1.91c0-.26-.08-.46-.23-.62s-.36-.23-.62-.23h-4.79c-.33,0-.56,.14-.7,.41l-.59,.93c-.19,.27-.15,.33,.13,.15l1.62-1.06c.14-.1,.3-.15,.49-.15s.34,.07,.45,.21c.11,.14,.19,.26,.25,.36,.02,.02,.18,.22,.49,.62,.53,.7,.9,1.27,1.11,1.7,.17,.29,.43,.44,.77,.44Zm-2.5-6.7h3.56c.38,0,.57-.19,.57-.58s-.19-.58-.57-.58h-3.17c-.4,0-.66,.19-.79,.58-.13,.39,0,.58,.4,.58Z"/>
      <path class="cls-2" d="M198.7,40.77c-.02-.09-.03-.19-.03-.31-.05-.57-.23-1.35-.54-2.35-.1-.38,.03-.57,.39-.57h1.42c.36,0,.62-.05,.79-.14,.16-.09,.24-.31,.24-.66v-13.56c0-.26-.08-.46-.23-.62-.16-.15-.36-.23-.62-.23h-16.24c-.26,0-.46-.08-.62-.23-.16-.15-.23-.36-.23-.62v-1.7c0-.26,.08-.46,.23-.62,.15-.15,.36-.23,.62-.23h20.1c.26,0,.46,.08,.62,.23,.16,.15,.23,.36,.23,.62v18.45c0,2.11-1.25,3.17-3.76,3.17h-1.68c-.41,0-.64-.22-.7-.64Zm-15.18-14.74v-1.62c0-.26,.08-.46,.23-.62,.15-.15,.36-.23,.62-.23h13.56c.26,0,.46,.08,.62,.23,.15,.15,.23,.36,.23,.62v1.62c0,.26-.08,.46-.23,.62-.16,.15-.36,.23-.62,.23h-13.56c-.26,0-.46-.08-.62-.23-.15-.15-.23-.36-.23-.62Zm1.88,10.9v-7.73c0-.26,.08-.46,.23-.62,.15-.15,.36-.23,.62-.23h10.1c.26,0,.46,.08,.62,.23,.15,.15,.23,.36,.23,.62v7.73c0,.26-.08,.46-.23,.62-.16,.15-.36,.23-.62,.23h-10.1c-.26,0-.46-.08-.62-.23-.16-.15-.23-.36-.23-.62Zm4.61-2.4h2.58c.26,0,.46-.08,.62-.23,.15-.15,.23-.36,.23-.62v-1.26c0-.26-.08-.46-.23-.62-.16-.15-.36-.23-.62-.23h-2.58c-.26,0-.46,.08-.62,.23-.16,.15-.23,.36-.23,.62v1.26c0,.26,.08,.46,.23,.62,.15,.15,.36,.23,.62,.23Z"/>
    </g>
    <path class="cls-3" d="M77.66,54.22c-3.74-3.26-8.08-4.88-12.99-4.88-5.46,0-10.12,1.93-13.98,5.82-3.87,3.87-5.8,8.5-5.8,13.94s1.35,9.86,4.08,12.93c2.26,2.49,6.36,4.49,12.31,5.99,2.66,.67,4.45,1.25,5.33,1.76,1.22,.69,1.85,1.68,1.85,2.92,0,1.05-.37,1.95-1.07,2.71-.75,.75-1.65,1.12-2.71,1.12-1.83,0-3.03-.86-3.61-2.58-.52-1.59-1.59-2.41-3.22-2.41h-.04c-1.2,0-2.1,.47-2.73,1.42-.69,.92-.88,1.95-.56,3.09,.73,2.21,2.04,3.97,3.89,5.33,1.89,1.33,3.97,2.02,6.27,2.02,2.94,0,5.46-1.05,7.52-3.14,2.08-2.08,3.11-4.62,3.11-7.56,0-3.61-1.22-6.27-3.72-8.01-1.5-1.07-4.1-2.04-7.82-2.92-4.04-.97-6.79-2.04-8.27-3.18-2.53-1.95-3.78-5.11-3.78-9.49,0-3.54,1.27-6.57,3.82-9.13s5.56-3.78,9.13-3.78c3.24,0,6.06,1.05,8.5,3.18,2.43,2.15,3.84,4.81,4.27,7.99,.13,.82,.52,1.5,1.16,2.04,.64,.58,1.4,.86,2.28,.86,1.03,0,1.89-.39,2.58-1.16,.62-.71,.9-1.61,.82-2.68-.69-4.88-2.9-8.93-6.61-12.2Zm-1.37,22.49c-1.76-.97-4.49-1.93-8.18-2.88-2.68-.69-4.49-1.27-5.37-1.76-1.25-.71-1.89-1.7-1.89-2.96,0-1.01,.39-1.91,1.12-2.64s1.65-1.12,2.71-1.12c1.83,0,3.03,.86,3.61,2.62,.52,1.52,1.59,2.3,3.26,2.3,1.22,0,2.15-.45,2.75-1.37,.69-.9,.84-1.93,.52-3.07-.73-2.21-2.02-3.97-3.87-5.33-1.87-1.35-3.95-2.02-6.27-2.02-2.94,0-5.46,1.05-7.56,3.14-2.08,2.08-3.11,4.6-3.11,7.5,0,3.65,1.25,6.34,3.76,8.12,1.46,1.03,4.08,2,7.82,2.88,.94,.24,1.61,.41,2.02,.52,3.26,.82,5.58,1.91,7,3.26,2,1.91,2.99,4.85,2.99,8.83,0,3.59-1.25,6.64-3.76,9.19-2.53,2.51-5.56,3.76-9.15,3.76-3.22,0-6.06-1.05-8.48-3.16-2.47-2.15-3.91-4.81-4.3-7.99-.15-.84-.54-1.52-1.16-2.1-.62-.56-1.37-.86-2.23-.86h-.04c-1.01,0-1.87,.41-2.58,1.2-.69,.77-.94,1.68-.77,2.71,.62,4.85,2.81,8.93,6.57,12.18,3.74,3.26,8.08,4.9,12.99,4.9,5.46,0,10.14-1.93,13.98-5.84,3.87-3.84,5.8-8.5,5.8-13.98,0-7.69-2.73-13.02-8.16-16Z"/>
    <path class="cls-3" d="M145.03,50.35c-.67-.67-1.46-1.01-2.41-1.01s-1.74,.34-2.41,1.01c-.69,.67-1.03,1.46-1.03,2.41v33.27c0,5.39-1.91,10.03-5.76,13.9-3.84,3.82-8.48,5.73-13.9,5.73s-10.07-1.91-13.9-5.73c-3.84-3.87-5.76-8.5-5.76-13.9V52.76c0-.94-.34-1.74-1.03-2.41-.64-.67-1.46-1.01-2.41-1.01s-1.76,.34-2.45,1.01c-.64,.67-.97,1.46-.97,2.41v33.27c0,7.28,2.58,13.53,7.75,18.75,5.18,5.18,11.43,7.75,18.75,7.75s13.55-2.58,18.75-7.75c5.18-5.22,7.77-11.47,7.77-18.75V52.76c0-.94-.34-1.74-1.03-2.41Zm-9.11,0c-.69-.67-1.5-1.01-2.45-1.01s-1.74,.34-2.41,1.01c-.69,.67-1.01,1.46-1.01,2.41v33.27c0,2.88-1.03,5.35-3.09,7.41-2.06,2.06-4.53,3.09-7.43,3.09s-5.41-1.03-7.45-3.09c-2.04-2.06-3.05-4.53-3.05-7.41V52.76c0-.94-.34-1.74-1.03-2.41-.67-.67-1.46-1.01-2.41-1.01s-1.76,.34-2.45,1.01c-.67,.67-.99,1.46-.99,2.41v33.27c0,4.77,1.7,8.85,5.11,12.26,3.37,3.39,7.45,5.11,12.26,5.11s8.87-1.72,12.26-5.11c3.41-3.41,5.11-7.5,5.11-12.26V52.76c0-.94-.32-1.74-.99-2.41Z"/>
    <path class="cls-3" d="M186.11,76.7c-1.76-.97-4.49-1.93-8.18-2.88-2.68-.69-4.47-1.27-5.37-1.76-1.25-.71-1.89-1.7-1.89-2.96,0-1.01,.39-1.91,1.12-2.64s1.65-1.12,2.71-1.12c1.83,0,3.03,.86,3.61,2.62,.52,1.52,1.59,2.3,3.26,2.3,1.22,0,2.15-.45,2.75-1.37,.69-.9,.86-1.93,.52-3.07-.73-2.21-2.02-3.97-3.87-5.33-1.87-1.35-3.95-2.02-6.27-2.02-2.94,0-5.46,1.05-7.54,3.14-2.1,2.08-3.14,4.6-3.14,7.5,0,3.65,1.25,6.34,3.78,8.12,1.44,1.03,4.06,2,7.8,2.88,.94,.24,1.61,.41,2.02,.52,3.26,.82,5.58,1.91,7,3.26,2,1.91,2.99,4.85,2.99,8.83,0,3.59-1.25,6.64-3.76,9.19-2.53,2.51-5.56,3.76-9.15,3.76-3.22,0-6.06-1.05-8.48-3.16-2.47-2.15-3.91-4.81-4.3-7.99-.15-.84-.54-1.52-1.16-2.1-.62-.56-1.37-.86-2.23-.86h-.04c-1.01,0-1.87,.41-2.58,1.2-.69,.77-.94,1.68-.77,2.71,.62,4.85,2.81,8.93,6.57,12.18,3.74,3.26,8.08,4.9,12.99,4.9,5.46,0,10.14-1.93,13.98-5.84,3.87-3.84,5.8-8.5,5.8-13.98,0-7.69-2.71-13.02-8.16-16Zm-15.01,11.32c2.66,.67,4.45,1.25,5.33,1.76,1.22,.69,1.85,1.68,1.85,2.92,0,1.05-.37,1.95-1.07,2.71-.75,.75-1.65,1.12-2.71,1.12-1.83,0-3.03-.86-3.61-2.58-.52-1.59-1.59-2.41-3.22-2.41h-.02c-1.2,0-2.13,.47-2.75,1.42-.69,.92-.88,1.95-.56,3.09,.73,2.21,2.04,3.97,3.89,5.33,1.89,1.33,3.99,2.02,6.27,2.02,2.94,0,5.46-1.05,7.52-3.14,2.08-2.08,3.14-4.62,3.14-7.56,0-3.61-1.25-6.27-3.74-8.01-1.5-1.07-4.1-2.04-7.82-2.92-4.04-.97-6.79-2.04-8.27-3.18-2.53-1.95-3.78-5.11-3.78-9.49,0-3.54,1.27-6.57,3.82-9.13s5.56-3.78,9.13-3.78c3.24,0,6.06,1.05,8.5,3.18,2.43,2.15,3.84,4.81,4.27,7.99,.13,.82,.52,1.5,1.16,2.04,.64,.58,1.4,.86,2.28,.86,1.03,0,1.89-.39,2.58-1.16,.62-.71,.9-1.61,.82-2.68-.69-4.88-2.88-8.93-6.61-12.2-3.74-3.26-8.08-4.88-12.99-4.88-5.46,0-10.12,1.93-13.98,5.82-3.87,3.87-5.8,8.5-5.8,13.94s1.35,9.86,4.08,12.93c2.26,2.49,6.36,4.49,12.31,5.99Zm15.01-11.32c-1.76-.97-4.49-1.93-8.18-2.88-2.68-.69-4.47-1.27-5.37-1.76-1.25-.71-1.89-1.7-1.89-2.96,0-1.01,.39-1.91,1.12-2.64s1.65-1.12,2.71-1.12c1.83,0,3.03,.86,3.61,2.62,.52,1.52,1.59,2.3,3.26,2.3,1.22,0,2.15-.45,2.75-1.37,.69-.9,.86-1.93,.52-3.07-.73-2.21-2.02-3.97-3.87-5.33-1.87-1.35-3.95-2.02-6.27-2.02-2.94,0-5.46,1.05-7.54,3.14-2.1,2.08-3.14,4.6-3.14,7.5,0,3.65,1.25,6.34,3.78,8.12,1.44,1.03,4.06,2,7.8,2.88,.94,.24,1.61,.41,2.02,.52,3.26,.82,5.58,1.91,7,3.26,2,1.91,2.99,4.85,2.99,8.83,0,3.59-1.25,6.64-3.76,9.19-2.53,2.51-5.56,3.76-9.15,3.76-3.22,0-6.06-1.05-8.48-3.16-2.47-2.15-3.91-4.81-4.3-7.99-.15-.84-.54-1.52-1.16-2.1-.62-.56-1.37-.86-2.23-.86h-.04c-1.01,0-1.87,.41-2.58,1.2-.69,.77-.94,1.68-.77,2.71,.62,4.85,2.81,8.93,6.57,12.18,3.74,3.26,8.08,4.9,12.99,4.9,5.46,0,10.14-1.93,13.98-5.84,3.87-3.84,5.8-8.5,5.8-13.98,0-7.69-2.71-13.02-8.16-16Zm0,0c-1.76-.97-4.49-1.93-8.18-2.88-2.68-.69-4.47-1.27-5.37-1.76-1.25-.71-1.89-1.7-1.89-2.96,0-1.01,.39-1.91,1.12-2.64s1.65-1.12,2.71-1.12c1.83,0,3.03,.86,3.61,2.62,.52,1.52,1.59,2.3,3.26,2.3,1.22,0,2.15-.45,2.75-1.37,.69-.9,.86-1.93,.52-3.07-.73-2.21-2.02-3.97-3.87-5.33-1.87-1.35-3.95-2.02-6.27-2.02-2.94,0-5.46,1.05-7.54,3.14-2.1,2.08-3.14,4.6-3.14,7.5,0,3.65,1.25,6.34,3.78,8.12,1.44,1.03,4.06,2,7.8,2.88,.94,.24,1.61,.41,2.02,.52,3.26,.82,5.58,1.91,7,3.26,2,1.91,2.99,4.85,2.99,8.83,0,3.59-1.25,6.64-3.76,9.19-2.53,2.51-5.56,3.76-9.15,3.76-3.22,0-6.06-1.05-8.48-3.16-2.47-2.15-3.91-4.81-4.3-7.99-.15-.84-.54-1.52-1.16-2.1-.62-.56-1.37-.86-2.23-.86h-.04c-1.01,0-1.87,.41-2.58,1.2-.69,.77-.94,1.68-.77,2.71,.62,4.85,2.81,8.93,6.57,12.18,3.74,3.26,8.08,4.9,12.99,4.9,5.46,0,10.14-1.93,13.98-5.84,3.87-3.84,5.8-8.5,5.8-13.98,0-7.69-2.71-13.02-8.16-16Z"/>
    <path class="cls-3" d="M208.69,50.31c-.64-.64-1.46-.97-2.45-.97s-1.74,.34-2.38,1.01c-.67,.67-.99,1.46-.99,2.36v56.38c0,.94,.32,1.76,.99,2.41,.67,.69,1.48,1.03,2.43,1.03s1.76-.34,2.41-1.03c.69-.64,1.03-1.46,1.03-2.41V52.71c0-.94-.34-1.74-1.03-2.41Z"/>
    <path class="cls-3" d="M217.84,50.35c-.67-.67-1.46-1.01-2.41-1.01s-1.78,.32-2.45,.97c-.67,.67-.99,1.46-.99,2.41v56.38c0,.94,.32,1.76,.99,2.41,.69,.69,1.5,1.03,2.45,1.03s1.74-.34,2.41-1.03c.64-.64,.99-1.46,.99-2.41V52.71c0-.9-.34-1.7-.99-2.36Z"/>
    <path class="cls-3" d="M225.7,80.05h17.08v6.85h-17.08c-1.03,0-1.93-.32-2.66-1.01-.73-.67-1.08-1.46-1.08-2.41s.35-1.76,1.08-2.45c.73-.67,1.62-.99,2.66-.99Z"/>
    <path class="cls-3" d="M241.73,70.9v6.87h-16.22c-.98,0-1.83-.34-2.52-1.03-.69-.67-1.03-1.46-1.03-2.41s.33-1.76,1.03-2.45c.69-.64,1.54-.99,2.52-.99h16.22Z"/>
    <g>
      <path class="cls-3" d="M287.29,22.83c-5.6-5.65-12.39-8.47-20.35-8.47s-14.7,2.82-20.34,8.47c-5.63,5.64-8.45,12.43-8.45,20.38,0,2.74,.34,5.34,1.02,7.8h0c.24,.91,.53,1.79,.87,2.65,.16,.4,.32,.79,.49,1.17,.83,1.86,1.87,3.64,3.13,5.32,.67,.92,1.41,1.81,2.24,2.68,.07,.08,.14,.15,.21,.23,.16,.17,.33,.34,.49,.5l.03,.03c.61,.62,1.25,1.2,1.9,1.74,.07,.06,.14,.12,.21,.17,.16,.14,.33,.28,.5,.41,.22,.19,.45,.36,.67,.53,.68,.51,1.37,.98,2.07,1.41,1.29,.82,2.64,1.5,4.03,2.07,.06,.03,.13,.05,.19,.07,.15,.06,.31,.13,.47,.18,.52,.21,1.05,.39,1.58,.56,2.72,.84,5.62,1.27,8.69,1.27s5.97-.42,8.69-1.27c.16-.04,.31-.09,.46-.14,.06-.02,.13-.04,.19-.06,2.36-.79,4.61-1.92,6.7-3.37,.16-.12,.33-.23,.49-.35,.07-.04,.13-.09,.2-.14,.63-.46,1.25-.95,1.86-1.49,.17-.13,.34-.28,.51-.43,.07-.06,.13-.12,.2-.18,.35-.32,.7-.66,1.05-1.01,2.43-2.43,4.34-5.07,5.72-7.93h0c.14-.31,.28-.61,.41-.91,.19-.44,.37-.89,.54-1.33,.01-.01,0-.02,0-.02,1.18-3.15,1.77-6.53,1.77-10.16,0-7.95-2.8-14.74-8.44-20.38Zm-2.38,29.47c-.2,.37-.4,.73-.62,1.09-.17,.28-.35,.56-.53,.83-.74,1.1-1.62,2.15-2.62,3.15-1.1,1.11-2.27,2.06-3.51,2.84-.07,.04-.13,.09-.2,.13-.16,.1-.33,.2-.49,.29-2.97,1.75-6.31,2.62-10,2.62-2.78,0-5.36-.49-7.73-1.49-1.38-.56-2.68-1.32-3.92-2.25h-.01c-.17-.12-.33-.24-.49-.37-.07-.05-.14-.1-.21-.16-.32-.25-.64-.52-.95-.8-.3-.26-.57-.51-.85-.81-.35-.35-.68-.68-.99-1.05-.77-.86-1.44-1.79-2.02-2.73h-.01c-.11-.18-.22-.35-.32-.53v-.02c-.11-.19-.22-.38-.31-.58-.42-.79-.79-1.61-1.09-2.45-.76-2.11-1.13-4.38-1.13-6.8,0-5.56,1.96-10.28,5.87-14.2,3.92-3.91,8.64-5.89,14.16-5.89s10.29,1.98,14.2,5.89c3.92,3.92,5.9,8.64,5.9,14.2,0,3.32-.71,6.36-2.13,9.09Z"/>
      <path class="cls-2" d="M268.3,55.08c-.57,.55-1.23,.98-2.04,1.29-1.66,.67-3.27,.65-4.9-.04-1.65-.71-2.76-1.86-3.43-3.53-.31-.8-.49-1.59-.49-2.37,.33,.08,.71,.14,1.08,.18,.25,.02,.53,.04,.78,.04,1.86,0,3.56-.63,5.03-1.88,.14-.12,.25-.22,.37-.33,0,.16,0,.33,.02,.51,.16,2.19,1.08,4.03,2.72,5.48,.27,.24,.55,.45,.84,.65Z"/>
      <path class="cls-2" d="M265.54,43.8c-.02,.16-.06,.29-.1,.43-.31,1.31-1.02,2.43-2.1,3.35-1.37,1.14-2.92,1.63-4.68,1.47-.35-.04-.69-.08-1-.18-.27-.04-.51-.12-.76-.22s-.49-.22-.72-.33v-.02c-.69-.37-1.31-.88-1.86-1.55-1.14-1.37-1.63-2.9-1.47-4.68,.16-1.76,.9-3.19,2.27-4.35,.67-.55,1.37-.94,2.13-1.18,.02,.35,.08,.71,.16,1.06,.49,2.15,1.68,3.82,3.54,4.99,.16,.1,.29,.18,.45,.24,.37,.22,.74,.39,1.14,.51,.84,.31,1.7,.47,2.59,.47,.14,0,.27,0,.41-.02Z"/>
      <path class="cls-2" d="M270.38,32.03c-.31,.16-.65,.31-.96,.51-1.88,1.12-3.09,2.78-3.62,4.92-.04,.18-.08,.33-.1,.51-.1,.43-.14,.84-.14,1.25-.04,1.02,.12,2,.49,2.96-.14,.04-.29,.04-.43,.06-1.35,.1-2.6-.22-3.82-.98-1.53-.94-2.47-2.25-2.86-3.98-.08-.33-.12-.67-.16-1-.02-.27-.02-.55,0-.82,0-.27,.04-.53,.1-.78,.14-.76,.43-1.51,.9-2.25,.94-1.51,2.25-2.43,4-2.84,.51-.12,1.02-.18,1.51-.18,1.16,0,2.25,.33,3.33,1,.72,.45,1.31,1,1.76,1.63Z"/>
      <path class="cls-2" d="M279.74,40.96c-.22,.84-.53,1.57-1,2.21-.24-.27-.49-.53-.78-.78-1.65-1.43-3.58-2.08-5.78-1.94-.18,.02-.33,.04-.51,.06h-.02c-.41,.06-.78,.14-1.18,.24h-.02c-.98,.29-1.88,.76-2.68,1.41-.08-.12-.14-.24-.18-.37-.53-1.25-.63-2.55-.27-3.96,.43-1.72,1.37-3.02,2.9-3.94,.31-.18,.61-.33,.92-.45,.25-.12,.49-.2,.74-.25,.25-.08,.51-.14,.78-.16,.25-.04,.51-.06,.76-.06,.53,0,1.1,.08,1.66,.22,1.72,.43,3.02,1.39,3.94,2.92,.9,1.55,1.14,3.13,.71,4.86Z"/>
      <circle class="cls-2" cx="272.72" cy="48.44" r="6.42"/>
    </g>
    <path class="cls-3" d="M243.89,50.43c-.72-.56-1.57-.77-2.55-.64s-1.68,.57-2.23,1.31c-.57,.75-.79,1.58-.67,2.47l7.28,55.92c.12,.94,.55,1.71,1.29,2.26,.75,.6,1.6,.83,2.54,.71s1.7-.57,2.25-1.33c.6-.73,.83-1.58,.71-2.52l-7.28-55.92c-.12-.94-.57-1.68-1.33-2.25Z"/>
    <path class="cls-3" d="M260.85,109.94c-.57,.77-1.31,1.21-2.25,1.33-.94,.13-1.79-.11-2.56-.7-.75-.56-1.17-1.32-1.29-2.26l-5.51-42.4-.5-3.84-.21-1.58-1.06-8.1c-.11-.89,.07-1.67,.57-2.38,.3,.84,.67,1.66,1.09,2.45,.09,.2,.2,.39,.31,.58v.02c.1,.18,.21,.35,.32,.53h.01c.58,.94,1.25,1.87,2.02,2.73,.31,.37,.64,.7,.99,1.05,.28,.3,.55,.55,.85,.81,.31,.28,.63,.55,.95,.8,.07,.06,.14,.11,.21,.16,.16,.13,.32,.25,.49,.37h.01l.72,5.57,.19,1.48,.47,3.61,4.85,37.26c.12,.93-.11,1.79-.67,2.51Z"/>
    <path class="cls-3" d="M289.91,50.43c.72-.56,1.57-.77,2.55-.64s1.68,.57,2.23,1.31c.57,.75,.79,1.58,.67,2.47l-7.28,55.93c-.12,.94-.55,1.71-1.29,2.26-.75,.6-1.6,.83-2.54,.71s-1.7-.57-2.25-1.33c-.6-.73-.83-1.58-.71-2.52l7.28-55.93c.12-.94,.57-1.68,1.33-2.25Z"/>
    <path class="cls-3" d="M286.33,52.29s-.01,.06-.01,.09l-1.23,9.44-.2,1.55-.49,3.78-5.36,41.16c-.12,.94-.54,1.71-1.29,2.26-.77,.59-1.62,.83-2.56,.71-.94-.12-1.68-.57-2.25-1.33-.56-.73-.79-1.58-.67-2.52l4.78-36.71,.46-3.57,.19-1.47,.66-5.06c.16-.09,.33-.19,.49-.29,.07-.04,.13-.09,.2-.13,1.24-.78,2.41-1.73,3.51-2.84,1-1,1.88-2.05,2.62-3.15,.18-.27,.36-.55,.53-.83,.22-.36,.42-.72,.62-1.09Z"/>
    <g>
      <path class="cls-3" d="M50.28,29.94c0-8.45,5.64-14.24,13.23-14.24,2.82,0,5.44,.8,7.44,2.28,.51,.38,.75,1.03,.61,1.66l-.4,1.78c-.23,1.02-1.33,1.56-2.28,1.11-1.15-.54-2.54-.86-3.88-.86-4.25,0-7.21,3.01-7.21,7.78s2.89,7.78,7.21,7.78c1.28,0,2.57-.28,3.65-.77,.96-.43,2.06,.22,2.23,1.26l.28,1.76c.09,.59-.13,1.2-.61,1.55-1.83,1.33-4.76,2.18-7.7,2.18-7.55,0-12.59-5.3-12.59-13.26Z"/>
      <path class="cls-3" d="M93.23,38.47v2.5c0,.9-.73,1.62-1.62,1.62h-14.52c-.91,0-1.64-.74-1.62-1.65,.03-2.33,.03-6.52,.03-10.83,0-4.63,0-9.4-.04-12.18-.01-.91,.72-1.65,1.62-1.65h3.98c.91,0,1.64,.74,1.62,1.64-.04,3.12-.04,7.42-.04,11.59v5.7c0,.9,.73,1.62,1.62,1.62h7.35c.9,0,1.62,.73,1.62,1.62Z"/>
      <path class="cls-3" d="M95.15,32.68v-4.17c0-6.54,0-8.99-.03-10.56-.02-.91,.72-1.65,1.62-1.65h3.81c.9,0,1.62,.73,1.62,1.62v3.64c0,1.35,.04,3.8,.04,10.56,0,1.16,.11,5.11,4.85,5.11,3.79,0,4.77-2.48,4.85-5.34,.04-1.39,.04-3.42,.04-5.56,0-1.73,0-5.75-.02-8.4,0-.9,.72-1.63,1.62-1.63h3.48c.91,0,1.64,.74,1.62,1.64,0,.7-.02,1.48-.02,2.34,0,2.93-.04,6.88-.15,12.06-.04,7.1-3.46,10.86-11.54,10.86-11.69,0-11.8-7.78-11.8-10.52Z"/>
      <path class="cls-3" d="M145.39,34.97c0,5-3.68,7.63-9.28,7.63h-11.2c-.91,0-1.65-.75-1.62-1.66,.06-2.43,.08-6.54,.08-10.81,0-4.54-.03-9.24-.08-12.18-.02-.91,.72-1.65,1.62-1.65h9.95c6.31,0,9.28,2.71,9.28,6.76,0,1.68-.52,2.95-1.46,3.87-.76,.75-.69,1.95,.18,2.57,1.7,1.2,2.52,3.12,2.52,5.48Zm-11.01,2.25c2.59,0,3.79-1.32,3.79-2.97,0-1.95-1.46-2.89-3.61-2.89h-2.43c-.9,0-1.62,.73-1.62,1.62v2.61c0,.9,.73,1.62,1.62,1.62h2.25Zm-3.8-14.21c0,.72-.01,1.44-.02,2.17,0,.9,.72,1.63,1.62,1.63h1.41c2.48,0,3.27-1.05,3.27-2.67,0-1.92-1.58-2.74-3.98-2.74h-.68c-.89,0-1.62,.72-1.62,1.61Z"/>
    </g>
  </g>
</svg>