<svg xmlns="http://www.w3.org/2000/svg" id="Layer_2" data-name="Layer 2" viewBox="0 0 111.19 111.3" style=""><defs><style>.cls-2{fill:none;stroke-width:2px;stroke:#ed3819;stroke-linejoin:round}</style></defs><g id="Changing"><path d="M94.18 17.04C83.56 6.35 70.67 1 55.59 1S27.7 6.35 17.01 17.04C6.35 27.74 1 40.63 1 55.7c0 12.11 3.49 22.84 10.44 32.12 1.63 2.23 3.49 4.38 5.57 6.46a59.99 59.99 0 0 0 6.28 5.46c1.3.97 2.6 1.86 3.94 2.67 3.75 2.38 7.72 4.16 11.88 5.46 5.16 1.6 10.66 2.41 16.49 2.41 15.08 0 27.97-5.35 38.59-16.01 10.7-10.7 16.01-23.55 16.01-38.59s-5.31-27.97-16.01-38.66ZM82.52 82.55c-7.43 7.43-16.42 11.14-26.93 11.14-5.27 0-10.18-.93-14.67-2.82-3.79-1.56-7.32-3.86-10.58-6.8-.56-.48-1.08-.97-1.6-1.52-.67-.67-1.3-1.3-1.89-2.01-1.71-1.93-3.19-4.05-4.46-6.16v-.04C19.2 68.77 17.6 62.57 17.6 55.7c0-10.55 3.71-19.5 11.14-26.93 7.43-7.43 16.38-11.18 26.85-11.18s19.5 3.75 26.93 11.18S93.7 45.15 93.7 55.7s-3.75 19.42-11.18 26.85Z" style="fill:none;stroke-width:2px;stroke:#fff;stroke-miterlimit:10" class="XFoRXVDt_0"></path><path d="M58.16 78.21a11.426 11.426 0 0 1-3.86 2.45c-3.16 1.26-6.2 1.23-9.28-.07-3.12-1.34-5.24-3.53-6.5-6.68-.59-1.52-.93-3.01-.93-4.49.63.15 1.34.26 2.04.33.48.04 1 .07 1.49.07 3.53 0 6.76-1.19 9.54-3.57.26-.22.48-.41.71-.63 0 .3 0 .63.04.97.3 4.16 2.04 7.65 5.16 10.4.52.45 1.04.85 1.6 1.23ZM51.09 56.24c-.03.31-.1.59-.17.86-.55 2.63-1.78 4.87-3.67 6.72-2.4 2.28-5.11 3.26-8.2 2.95-.62-.08-1.2-.16-1.75-.35-.48-.08-.89-.24-1.34-.43s-.86-.43-1.27-.67v-.04c-1.2-.75-2.3-1.77-3.26-3.1-1.99-2.75-2.85-5.81-2.57-9.39.27-3.54 1.58-6.4 3.98-8.72 1.17-1.1 2.4-1.89 3.74-2.36.03.71.14 1.41.27 2.12.86 4.32 2.95 7.66 6.21 10.02.27.2.51.35.79.47.65.43 1.3.79 1.99 1.02 1.48.63 2.99.94 4.53.94.24 0 .48 0 .72-.04Z" class="cls-2 XFoRXVDt_1"></path><path d="M62.09 34.5c-.59.3-1.23.59-1.82.97-3.57 2.12-5.87 5.27-6.87 9.32-.07.33-.15.63-.19.97-.19.82-.26 1.6-.26 2.38-.07 1.93.22 3.79.93 5.61-.26.07-.56.07-.82.11-2.56.19-4.94-.41-7.24-1.86-2.9-1.78-4.68-4.27-5.42-7.54-.15-.63-.22-1.26-.3-1.89-.04-.52-.04-1.04 0-1.56 0-.52.07-1 .19-1.49.26-1.45.82-2.86 1.71-4.27 1.78-2.86 4.27-4.61 7.58-5.38.97-.22 1.93-.33 2.86-.33 2.19 0 4.27.63 6.31 1.89 1.37.85 2.49 1.89 3.34 3.08Z" class="cls-2 XFoRXVDt_2"></path><path d="M79.84 51.43c-.41 1.6-1 2.97-1.89 4.2-.45-.52-.93-1-1.49-1.49-3.12-2.71-6.8-3.94-10.96-3.68-.33.04-.63.07-.97.11h-.04c-.78.11-1.49.26-2.23.45h-.04c-1.86.56-3.57 1.45-5.09 2.67-.15-.22-.26-.45-.33-.71-1-2.38-1.19-4.83-.52-7.5.82-3.27 2.6-5.72 5.5-7.46.59-.33 1.15-.63 1.75-.85.48-.22.93-.37 1.41-.48.48-.15.97-.26 1.49-.3.48-.07.97-.11 1.45-.11 1 0 2.08.15 3.16.41 3.27.82 5.72 2.64 7.46 5.53 1.71 2.93 2.15 5.94 1.34 9.21Z" class="cls-2 XFoRXVDt_3"></path><path class="cls-2 XFoRXVDt_4" d="M54.349999999999994,65.62A12.17,12.17 0,1,1 78.69,65.62A12.17,12.17 0,1,1 54.349999999999994,65.62"></path></g><style data-made-with="vivus-instant">.XFoRXVDt_0{stroke-dasharray:584 586;stroke-dashoffset:585;animation:XFoRXVDt_draw_0 5200ms ease-in 0ms infinite,XFoRXVDt_fade 5200ms linear 0ms infinite;}.XFoRXVDt_1{stroke-dasharray:133 135;stroke-dashoffset:134;animation:XFoRXVDt_draw_1 5200ms ease-in 0ms infinite,XFoRXVDt_fade 5200ms linear 0ms infinite;}.XFoRXVDt_2{stroke-dasharray:75 77;stroke-dashoffset:76;animation:XFoRXVDt_draw_2 5200ms ease-in 0ms infinite,XFoRXVDt_fade 5200ms linear 0ms infinite;}.XFoRXVDt_3{stroke-dasharray:75 77;stroke-dashoffset:76;animation:XFoRXVDt_draw_3 5200ms ease-in 0ms infinite,XFoRXVDt_fade 5200ms linear 0ms infinite;}.XFoRXVDt_4{stroke-dasharray:77 79;stroke-dashoffset:78;animation:XFoRXVDt_draw_4 5200ms ease-in 0ms infinite,XFoRXVDt_fade 5200ms linear 0ms infinite;}@keyframes XFoRXVDt_draw{100%{stroke-dashoffset:0;}}@keyframes XFoRXVDt_fade{0%{stroke-opacity:1;}98.07692307692308%{stroke-opacity:1;}100%{stroke-opacity:0;}}@keyframes XFoRXVDt_draw_0{1.9230769230769231%{stroke-dashoffset: 585}59.61538461538461%{ stroke-dashoffset: 0;}100%{ stroke-dashoffset: 0;}}@keyframes XFoRXVDt_draw_1{1.9230769230769231%{stroke-dashoffset: 134}59.61538461538461%{ stroke-dashoffset: 0;}100%{ stroke-dashoffset: 0;}}@keyframes XFoRXVDt_draw_2{1.9230769230769231%{stroke-dashoffset: 76}59.61538461538461%{ stroke-dashoffset: 0;}100%{ stroke-dashoffset: 0;}}@keyframes XFoRXVDt_draw_3{1.9230769230769231%{stroke-dashoffset: 76}59.61538461538461%{ stroke-dashoffset: 0;}100%{ stroke-dashoffset: 0;}}@keyframes XFoRXVDt_draw_4{1.9230769230769231%{stroke-dashoffset: 78}59.61538461538461%{ stroke-dashoffset: 0;}100%{ stroke-dashoffset: 0;}}</style></svg>